<svg width="50" height="37" viewBox="0 0 50 37" fill="none" xmlns="http://www.w3.org/2000/svg">
<path fill-rule="evenodd" clip-rule="evenodd" d="M25.79 7.99663C27.6056 7.59827 28.9644 5.98048 28.9644 4.04531C28.9644 1.81115 27.1533 0 24.9191 0C22.6849 0 20.8738 1.81115 20.8738 4.04531C20.8738 5.87916 22.0941 7.42801 23.7669 7.92416L18.0421 17.7184L6.78942 11.0629C7.58955 10.3238 8.09062 9.26574 8.09062 8.09062C8.09062 5.85645 6.27947 4.04531 4.04531 4.04531C1.81115 4.04531 0 5.85645 0 8.09062C0 10.3248 1.81115 12.1359 4.04531 12.1359C4.51836 12.1359 4.97245 12.0547 5.3944 11.9055L12.945 36.6505H36.5696L44.11 11.6918C44.6631 11.9757 45.2902 12.1359 45.9547 12.1359C48.1889 12.1359 50 10.3248 50 8.09062C50 5.85645 48.1889 4.04531 45.9547 4.04531C43.7205 4.04531 41.9094 5.85645 41.9094 8.09062C41.9094 9.16048 42.3247 10.1334 43.0029 10.8568L31.4725 17.7184L25.79 7.99663Z" fill="#606060"/>
</svg>
